PathFileType	4	(X/Y/Z)	C:\Data\4407\4407cd03.trc
DataRate	CameraRate	NumFrames	NumMarkers	Units	OrigDataRate	OrigDataStartFrame	OrigNumFrames
200.00	200.00	      6	29	mm	200.00	1	      2000
Frame#	Time	Offset			RShoulder			RUpperArm			RElbow			RForearm			RWrist			LShoulder			LUpperArm			LElbow			LForearm			LWrist			LPSIS			RPSIS			RASIS			RThigh			RKnee			RShank			RAnkle			RHeel			RLat5			RToe			LASIS			LThigh			LKnee			LShank			LAnkle			LHeel			LLat5			LToe			
        X1	Y1	Z1	X2	Y2	Z2	X3	Y3	Z3	X4	Y4	Z4	X5	Y5	Z5	X6	Y6	Z6	X7	Y7	Z7	X8	Y8	Z8	X9	Y9	Z9	X10	Y10	Z10	X11	Y11	Z11	X12	Y12	Z12	X13	Y13	Z13	X14	Y14	Z14	X15	Y15	Z15	X16	Y16	Z16	X17	Y17	Z17	X18	Y18	Z18	X19	Y19	Z19	X20	Y20	Z20	X21	Y21	Z21	X22	Y22	Z22	X23	Y23	Z23	X24	Y24	Z24	X25	Y25	Z25	X26	Y26	Z26	X27	Y27	Z27	X28	Y28	Z28	X29	Y29	Z29	

1	0.000	302.12668	-189.59804	1354.44275	424.12872	-69.70279	1474.91064	447.75217	-215.73714	1338.13892	546.94348	-242.90527	1203.95288	497.81561	-175.93228	1050.33923	509.43588	-39.96773	1032.24585	75.01368	-35.15237	1443.25793	41.71183	-126.16383	1228.80054	-45.93405	-100.27539	1130.51868	-23.88054	61.80145	1114.65552	-14.01464	153.24457	1231.39868	273.69568	-215.20520	978.92163	323.57236	-209.68024	975.21021	396.50665	9.14111	958.54297	357.17087	112.71873	682.49384	436.62039	92.77971	477.39441	391.54956	55.20335	404.38126	368.81302	-289.29666	343.09961	311.50427	-330.31754	383.31085	421.84192	-307.59778	200.34561	318.38724	-292.38815	174.88507	145.88647	-13.09121	956.07178	193.71078	50.92614	642.26196	160.25456	6.94737	467.54678	215.64870	10.43672	390.93698	221.98753	-210.50551	116.34558	265.47888	-284.13745	96.60888	216.65361	-71.55210	52.57948	328.57440	-83.48518	37.63467	
2	0.005	301.15866	-190.16454	1355.83594	423.70010	-71.22767	1476.41675	445.93051	-218.41226	1341.17773	544.77057	-248.28850	1207.36719	496.56812	-181.33244	1053.49353	510.27899	-45.40155	1035.31421	75.31743	-34.10780	1444.26001	41.44067	-121.53333	1228.74451	-45.58916	-92.80942	1130.41223	-20.51947	69.65634	1117.92139	-9.67475	158.07362	1237.03271	272.74966	-215.72791	980.13867	322.71994	-210.41553	976.70264	397.01617	7.39564	959.87433	355.85269	114.99112	686.97223	435.82126	101.16152	481.93689	390.53024	64.72778	408.44147	370.63083	-278.56708	338.18723	313.56873	-321.40814	376.99823	423.44061	-290.55420	194.74779	319.62869	-276.20291	169.64194	145.36256	-12.91426	956.86005	192.01872	46.22979	639.83380	159.62698	-1.56554	466.41019	215.07721	2.81699	389.70627	221.26846	-222.05640	117.21281	264.01840	-293.93274	98.89861	216.55644	-83.63097	52.53939	328.38663	-95.67438	37.82723	
3	0.010	300.18408	-190.52718	1357.54553	423.28354	-72.98595	1478.48779	443.77161	-221.11536	1344.72620	542.80792	-253.39897	1211.23291	495.33701	-186.47462	1057.26904	510.76077	-50.88760	1039.19592	75.41647	-33.16980	1445.85425	41.08849	-117.13306	1229.32776	-44.86374	-85.77960	1130.96545	-16.98488	76.95776	1122.19629	-5.00305	162.29323	1243.13953	271.41693	-216.28952	981.59485	321.14792	-211.14279	978.53882	397.04285	6.43585	962.39594	354.86533	117.06754	691.72040	434.72717	109.40187	487.06970	389.30334	74.73605	412.19589	372.07397	-267.37656	332.86072	315.27133	-312.40671	370.14621	424.73920	-273.47800	189.10951	320.59561	-259.93088	164.79498	145.33502	-12.93916	957.28497	190.85245	41.59078	637.84265	159.27808	-10.35718	465.73560	215.05882	-7.31199	388.49295	220.60146	-233.59279	118.49752	263.16470	-305.25012	100.95654	216.35545	-95.79646	52.39817	328.11169	-107.79861	37.94964	
4	0.015	299.28082	-191.02040	1359.55603	422.80618	-74.96478	1481.08496	442.11237	-224.03671	1348.73010	540.96692	-258.42346	1215.66821	494.65250	-191.52248	1061.10266	511.68515	-56.24073	1043.53430	75.64626	-31.75410	1448.32483	40.53440	-112.93266	1230.25879	-44.27378	-78.82861	1132.09509	-13.70012	83.79376	1126.95313	0.08159	166.24948	1250.05383	269.79819	-216.44194	983.40173	319.60834	-211.62439	980.46729	397.10364	5.06098	965.41370	353.59146	118.64816	696.80731	433.76596	116.55265	492.87485	388.49722	83.59166	416.95786	373.31891	-255.94424	327.36176	317.10120	-303.55331	362.91818	426.49191	-255.13359	183.95346	321.85309	-243.01927	159.64581	145.44720	-12.84442	957.82245	188.90623	35.99759	635.65765	159.15915	-19.52995	465.50558	214.72063	-16.96813	387.90747	220.06436	-244.39825	119.89896	262.47607	-316.57867	103.36089	216.47614	-107.72567	52.41154	328.80029	-118.27721	39.48183	
5	0.020	298.33627	-191.46196	1361.87476	422.38489	-76.94495	1484.08362	440.24789	-226.62328	1352.98499	538.96124	-263.34622	1220.52124	494.09167	-196.14091	1064.67578	512.16815	-61.63891	1048.04529	75.95059	-30.69789	1451.03284	40.10148	-108.94397	1231.97998	-43.69692	-72.15088	1133.90674	-10.13303	90.16936	1132.27722	5.12533	169.30092	1257.05493	268.06332	-216.55118	985.43036	317.61844	-212.08817	982.56036	396.90469	4.24110	968.54871	352.63510	120.27769	702.19238	432.98074	123.74783	498.92532	387.60577	92.03825	422.06625	375.70807	-244.52644	320.25418	318.82306	-294.00323	355.28204	427.21848	-238.03247	178.11632	323.21442	-224.34052	154.73647	145.56117	-12.21411	958.61218	187.19991	29.54065	634.12817	159.30734	-28.65634	465.92838	214.64622	-26.36977	388.41690	219.61588	-255.73940	121.52068	261.98273	-327.60339	105.82643	216.52573	-119.82681	52.42013	328.89645	-130.48416	39.53839	
6	0.025	297.27893	-191.84219	1364.51160	421.97775	-79.01077	1487.51392	438.16846	-229.62267	1357.61938	537.28540	-268.12131	1225.57141	492.54315	-200.75887	1071.48157	510.75082	-65.00745	1054.70166	76.27207	-29.57988	1454.08313	39.25911	-105.21898	1234.12170	-42.98267	-65.79598	1136.20178	-6.48426	95.71132	1138.15430	10.47328	172.23428	1264.43823	265.94485	-216.65657	987.77667	315.63126	-212.43234	984.72089	396.79803	3.62829	971.95245	351.61417	121.82830	707.91339	432.14880	130.27534	505.39182	386.90778	100.49549	427.43530	377.25592	-233.32913	314.58923	319.86548	-285.30978	347.95807	427.95212	-219.87791	172.89830	323.62024	-207.99683	149.71045	145.65605	-11.48198	959.80951	186.38176	23.62273	633.76080	159.50430	-37.85348	467.06232	214.41542	-36.36233	389.40363	219.44838	-266.50507	123.11349	261.36548	-338.68607	108.81180	216.63701	-132.21365	52.45306	328.78101	-142.72401	39.77192	
